<svg width="41" height="41" viewBox="0 0 41 41" fill="none" xmlns="http://www.w3.org/2000/svg">
<rect x="0.333313" y="0.5" width="40" height="40" rx="4" fill="#F1F8FF"/>
<path fill-rule="evenodd" clip-rule="evenodd" d="M23.3459 13.9267C24.0293 13.2433 25.1373 13.2433 25.8207 13.9267L26.9065 15.0125C27.5899 15.6959 27.5899 16.804 26.9065 17.4874L18.2968 26.0971C18.0865 26.3074 17.8261 26.4606 17.5402 26.5423L14.2893 27.4711C14.0274 27.546 13.7455 27.4729 13.5529 27.2803C13.3603 27.0877 13.2873 26.8059 13.3621 26.544L14.2909 23.2931C14.3726 23.0072 14.5259 22.7467 14.7362 22.5364L23.3459 13.9267ZM24.7601 14.9874C24.6624 14.8898 24.5041 14.8898 24.4065 14.9874L23.1439 16.25L24.5833 17.6893L25.8459 16.4267C25.9435 16.3291 25.9435 16.1708 25.8459 16.0732L24.7601 14.9874ZM23.5226 18.75L22.0833 17.3106L15.7968 23.5971C15.7668 23.6271 15.7449 23.6643 15.7332 23.7052L15.1753 25.658L17.1281 25.1C17.1689 25.0884 17.2061 25.0665 17.2362 25.0364L23.5226 18.75Z" fill="#6281A0"/>
</svg>
