<svg width="40" height="41" viewBox="0 0 40 41" fill="none" xmlns="http://www.w3.org/2000/svg">
<rect x="3.05176e-05" y="0.5" width="40" height="40" rx="4" fill="#F1F8FF"/>
<g clip-path="url(#clip0_203_90)">
<path fill-rule="evenodd" clip-rule="evenodd" d="M13.75 14.5C12.7835 14.5 12 15.2835 12 16.25V16.9858C11.9999 16.9948 11.9999 17.0038 12 17.0128V24.75C12 25.7165 12.7835 26.5 13.75 26.5H26.25C27.2165 26.5 28 25.7165 28 24.75V17.0127C28.0002 17.0038 28.0002 16.9948 28 16.9859V16.25C28 15.2835 27.2165 14.5 26.25 14.5H13.75ZM26.5 16.5703V16.25C26.5 16.1119 26.3881 16 26.25 16H13.75C13.612 16 13.5 16.1119 13.5 16.25V16.5703L20 20.3806L26.5 16.5703ZM13.5 18.309V24.75C13.5 24.8881 13.612 25 13.75 25H26.25C26.3881 25 26.5 24.8881 26.5 24.75V18.309L20.3793 21.897C20.1451 22.0343 19.855 22.0343 19.6207 21.897L13.5 18.309Z" fill="#6281A0"/>
</g>
<defs>
<clipPath id="clip0_203_90">
<rect width="16" height="16" fill="white" transform="translate(12 12.5)"/>
</clipPath>
</defs>
</svg>
