<svg width="41" height="41" viewBox="0 0 41 41" fill="none" xmlns="http://www.w3.org/2000/svg">
<rect x="0.66671" y="0.5" width="40" height="40" rx="4" fill="#F1F8FF"/>
<g clip-path="url(#clip0_203_96)">
<path fill-rule="evenodd" clip-rule="evenodd" d="M20.6667 12.5C17.9053 12.5 15.6667 14.7386 15.6667 17.5V20.4472C15.6667 20.4966 15.6521 20.5448 15.6247 20.5859L13.9216 23.1406C13.7554 23.3899 13.6667 23.6828 13.6667 23.9824C13.6667 24.8206 14.3462 25.5 15.1843 25.5H26.1491C26.9873 25.5 27.6667 24.8206 27.6667 23.9824C27.6667 23.6828 27.578 23.3899 27.4118 23.1406L25.7087 20.5859C25.6813 20.5448 25.6667 20.4966 25.6667 20.4472V17.5C25.6667 14.7386 23.4281 12.5 20.6667 12.5ZM17.1667 17.5C17.1667 15.567 18.7337 14 20.6667 14C22.5997 14 24.1667 15.567 24.1667 17.5V20.4472C24.1667 20.7927 24.269 21.1305 24.4606 21.4179L26.1637 23.9726C26.1657 23.9755 26.1667 23.9789 26.1667 23.9824C26.1667 23.9847 26.1662 23.9873 26.1662 23.9873L26.1656 23.989C26.1656 23.989 26.1637 23.9927 26.1615 23.9948C26.1594 23.997 26.1557 23.9989 26.1557 23.9989C26.1557 23.9989 26.1529 24 26.1491 24H15.1843C15.1805 24 15.1777 23.9989 15.1777 23.9989C15.1777 23.9989 15.174 23.997 15.1719 23.9948C15.1697 23.9927 15.1678 23.989 15.1678 23.989C15.1678 23.989 15.1667 23.9862 15.1667 23.9824C15.1667 23.9789 15.1677 23.9755 15.1697 23.9726L16.8728 21.4179C17.0644 21.1305 17.1667 20.7927 17.1667 20.4472V17.5Z" fill="#6281A0"/>
<path d="M22.6513 26.7495C22.5285 27.7363 21.6868 28.5 20.6667 28.5C19.6466 28.5 18.8049 27.7363 18.6821 26.7495C18.6651 26.6125 18.7786 26.5 18.9167 26.5H22.4167C22.5548 26.5 22.6683 26.6125 22.6513 26.7495Z" fill="#6281A0"/>
</g>
<defs>
<clipPath id="clip0_203_96">
<rect width="16" height="16" fill="white" transform="translate(12.6667 12.5)"/>
</clipPath>
</defs>
</svg>
