<svg width="126" height="30" viewBox="0 0 126 30" fill="none" xmlns="http://www.w3.org/2000/svg">
<path d="M4.08 29.92C2.88 29.92 1.89333 29.5733 1.12 28.88C0.373333 28.16 0 27.28 0 26.24C0 25.1733 0.373333 24.28 1.12 23.56C1.89333 22.84 2.88 22.48 4.08 22.48C5.25333 22.48 6.21333 22.84 6.96 23.56C7.73333 24.28 8.12 25.1733 8.12 26.24C8.12 27.28 7.73333 28.16 6.96 28.88C6.21333 29.5733 5.25333 29.92 4.08 29.92Z" fill="#5B6B3A"/>
<path d="M31.5691 10.56C31.5691 12.1867 31.1957 13.68 30.4491 15.04C29.7024 16.3733 28.5557 17.4533 27.0091 18.28C25.4624 19.1067 23.5424 19.52 21.2491 19.52H17.0091V29.6H10.1691V1.52H21.2491C23.4891 1.52 25.3824 1.90667 26.9291 2.68C28.4757 3.45333 29.6357 4.52 30.4091 5.88C31.1824 7.24 31.5691 8.8 31.5691 10.56ZM20.7291 14.08C22.0357 14.08 23.0091 13.7733 23.6491 13.16C24.2891 12.5467 24.6091 11.68 24.6091 10.56C24.6091 9.44 24.2891 8.57333 23.6491 7.96C23.0091 7.34667 22.0357 7.04 20.7291 7.04H17.0091V14.08H20.7291Z" fill="#5B6B3A"/>
<path d="M39.97 0V29.6H33.13V0H39.97Z" fill="#5B6B3A"/>
<path d="M41.5669 18.4C41.5669 16.1067 41.9935 14.0933 42.8469 12.36C43.7269 10.6267 44.9135 9.29333 46.4069 8.36C47.9002 7.42666 49.5669 6.96 51.4069 6.96C52.9802 6.96 54.3535 7.28 55.5269 7.92C56.7269 8.56 57.6469 9.4 58.2869 10.44V7.28H65.1269V29.6H58.2869V26.44C57.6202 27.48 56.6869 28.32 55.4869 28.96C54.3135 29.6 52.9402 29.92 51.3669 29.92C49.5535 29.92 47.9002 29.4533 46.4069 28.52C44.9135 27.56 43.7269 26.2133 42.8469 24.48C41.9935 22.72 41.5669 20.6933 41.5669 18.4ZM58.2869 18.44C58.2869 16.7333 57.8069 15.3867 56.8469 14.4C55.9135 13.4133 54.7669 12.92 53.4069 12.92C52.0469 12.92 50.8869 13.4133 49.9269 14.4C48.9935 15.36 48.5269 16.6933 48.5269 18.4C48.5269 20.1067 48.9935 21.4667 49.9269 22.48C50.8869 23.4667 52.0469 23.96 53.4069 23.96C54.7669 23.96 55.9135 23.4667 56.8469 22.48C57.8069 21.4933 58.2869 20.1467 58.2869 18.44Z" fill="#5B6B3A"/>
<path d="M81.6753 7.04C84.2887 7.04 86.3686 7.89333 87.9153 9.6C89.4886 11.28 90.2753 13.6 90.2753 16.56V29.6H83.4753V17.48C83.4753 15.9867 83.0886 14.8267 82.3153 14C81.542 13.1733 80.502 12.76 79.1953 12.76C77.8886 12.76 76.8486 13.1733 76.0753 14C75.302 14.8267 74.9153 15.9867 74.9153 17.48V29.6H68.0753V7.28H74.9153V10.24C75.6087 9.25333 76.542 8.48 77.7153 7.92C78.8886 7.33333 80.2086 7.04 81.6753 7.04Z" fill="#5B6B3A"/>
<path d="M105.468 23.8V29.6H101.988C99.5084 29.6 97.5751 29 96.1884 27.8C94.8018 26.5733 94.1084 24.5867 94.1084 21.84V12.96H91.3884V7.28H94.1084V1.84H100.948V7.28H105.428V12.96H100.948V21.92C100.948 22.5867 101.108 23.0667 101.428 23.36C101.748 23.6533 102.282 23.8 103.028 23.8H105.468Z" fill="#5B6B3A"/>
<path d="M116.358 29.92C114.412 29.92 112.678 29.5867 111.158 28.92C109.638 28.2533 108.438 27.3467 107.558 26.2C106.678 25.0267 106.185 23.72 106.078 22.28H112.838C112.918 23.0533 113.278 23.68 113.918 24.16C114.558 24.64 115.345 24.88 116.278 24.88C117.132 24.88 117.785 24.72 118.238 24.4C118.718 24.0533 118.958 23.6133 118.958 23.08C118.958 22.44 118.625 21.9733 117.958 21.68C117.292 21.36 116.212 21.0133 114.718 20.64C113.118 20.2667 111.785 19.88 110.718 19.48C109.652 19.0533 108.732 18.4 107.958 17.52C107.185 16.6133 106.798 15.4 106.798 13.88C106.798 12.6 107.145 11.44 107.838 10.4C108.558 9.33333 109.598 8.49333 110.958 7.88C112.345 7.26667 113.985 6.96 115.878 6.96C118.678 6.96 120.878 7.65333 122.478 9.04C124.105 10.4267 125.038 12.2667 125.278 14.56H118.958C118.852 13.7867 118.505 13.1733 117.918 12.72C117.358 12.2667 116.612 12.04 115.678 12.04C114.878 12.04 114.265 12.2 113.838 12.52C113.412 12.8133 113.198 13.2267 113.198 13.76C113.198 14.4 113.532 14.88 114.198 15.2C114.892 15.52 115.958 15.84 117.398 16.16C119.052 16.5867 120.398 17.0133 121.438 17.44C122.478 17.84 123.385 18.5067 124.158 19.44C124.958 20.3467 125.372 21.5733 125.398 23.12C125.398 24.4267 125.025 25.6 124.278 26.64C123.558 27.6533 122.505 28.4533 121.118 29.04C119.758 29.6267 118.172 29.92 116.358 29.92Z" fill="#5B6B3A"/>
</svg>
