<svg width="156" height="60" viewBox="0 0 156 60" fill="none" xmlns="http://www.w3.org/2000/svg">
<path d="M35 47.6V49H21.3V47.6L24.05 47.25C24.5833 47.1833 24.9 47.05 25 46.85C25.1 46.6167 25.15 45.9333 25.15 44.8V32.7H12V44.8C12 45.9333 12.05 46.6167 12.15 46.85C12.25 47.05 12.5667 47.1833 13.1 47.25L15.85 47.6V49H2.15V47.6L4.9 47.25C5.43333 47.1833 5.75 47.05 5.85 46.85C5.95 46.6167 6 45.9333 6 44.8V19.2C6 18.0667 5.95 17.4 5.85 17.2C5.75 16.9667 5.43333 16.8167 4.9 16.75L2.15 16.4V15H15.85V16.4L13.1 16.75C12.5667 16.8167 12.25 16.9667 12.15 17.2C12.05 17.4 12 18.0667 12 19.2V30.95H25.15V19.2C25.15 18.0667 25.1 17.4 25 17.2C24.9 16.9667 24.5833 16.8167 24.05 16.75L21.3 16.4V15H35V16.4L32.25 16.75C31.7167 16.8167 31.4 16.9667 31.3 17.2C31.2 17.4 31.15 18.0667 31.15 19.2V44.8C31.15 45.9333 31.2 46.6167 31.3 46.85C31.4 47.05 31.7167 47.1833 32.25 47.25L35 47.6Z" fill="#23110B"/>
<path d="M43.5082 49.5C42.4749 49.5 41.6249 49.1833 40.9582 48.55C40.3249 47.8833 40.0082 47.0167 40.0082 45.95C40.0082 44.8833 40.3249 44.0333 40.9582 43.4C41.6249 42.7667 42.4749 42.45 43.5082 42.45C44.5415 42.45 45.3915 42.7667 46.0582 43.4C46.7249 44.0333 47.0582 44.8833 47.0582 45.95C47.0582 47.0167 46.7249 47.8833 46.0582 48.55C45.3915 49.1833 44.5415 49.5 43.5082 49.5ZM78.5445 30.4V33.55C78.5445 38.6833 77.3945 42.6333 75.0945 45.4C72.8279 48.1333 69.4612 49.5 64.9945 49.5C60.5279 49.5 57.1445 48.1333 54.8445 45.4C52.5779 42.6333 51.4445 38.6833 51.4445 33.55V30.4C51.4445 25.2667 52.5779 21.3333 54.8445 18.6C57.1445 15.8667 60.5279 14.5 64.9945 14.5C69.4612 14.5 72.8279 15.8667 75.0945 18.6C77.3945 21.3333 78.5445 25.2667 78.5445 30.4ZM72.1445 27.9C72.1445 24.9667 71.8945 22.6667 71.3945 21C70.8945 19.3 70.1112 18.0833 69.0445 17.35C68.0112 16.6167 66.6612 16.25 64.9945 16.25C63.3612 16.25 62.0112 16.6167 60.9445 17.35C59.8779 18.0833 59.0945 19.3 58.5945 21C58.0945 22.6667 57.8445 24.9667 57.8445 27.9V36.05C57.8445 38.95 58.0945 41.25 58.5945 42.95C59.0945 44.65 59.8779 45.8833 60.9445 46.65C62.0112 47.3833 63.3612 47.75 64.9945 47.75C66.6612 47.75 68.0112 47.3833 69.0445 46.65C70.1112 45.8833 70.8945 44.65 71.3945 42.95C71.8945 41.25 72.1445 38.95 72.1445 36.05V27.9ZM123.236 47.6V49H109.536V47.6L112.286 47.25C112.819 47.1833 113.136 47.05 113.236 46.85C113.336 46.6167 113.386 45.9333 113.386 44.8V19.1L104.236 45H98.8859L89.8359 19.25V44.8C89.8359 45.9333 89.8859 46.6167 89.9859 46.85C90.0859 47.05 90.4026 47.1833 90.9359 47.25L93.6859 47.6V49H83.9859V47.6L86.7359 47.25C87.2693 47.1833 87.5859 47.05 87.6859 46.85C87.7859 46.6167 87.8359 45.9333 87.8359 44.8V19.2C87.8359 18.0667 87.7859 17.4 87.6859 17.2C87.5859 16.9667 87.2693 16.8167 86.7359 16.75L83.9859 16.4V15H94.5359L103.686 41L112.986 15H123.236V16.4L120.486 16.75C119.953 16.8167 119.636 16.9667 119.536 17.2C119.436 17.4 119.386 18.0667 119.386 19.2V44.8C119.386 45.9333 119.436 46.6167 119.536 46.85C119.636 47.05 119.953 47.1833 120.486 47.25L123.236 47.6ZM150.891 40.4H152.291V49H127.541V47.6L130.291 47.25C130.824 47.1833 131.141 47.05 131.241 46.85C131.341 46.6167 131.391 45.9333 131.391 44.8V19.2C131.391 18.0667 131.341 17.4 131.241 17.2C131.141 16.9667 130.824 16.8167 130.291 16.75L127.541 16.4V15H151.791V23.6H150.391L148.791 18.05C148.691 17.65 148.574 17.3667 148.441 17.2C148.341 17 148.124 16.8833 147.791 16.85C147.457 16.7833 146.891 16.75 146.091 16.75H137.391V30.95H143.091C143.891 30.95 144.457 30.9333 144.791 30.9C145.124 30.8333 145.341 30.7167 145.441 30.55C145.574 30.35 145.691 30.05 145.791 29.65L146.891 25.6H148.291V38.05H146.891L145.791 34C145.691 33.6 145.574 33.3167 145.441 33.15C145.341 32.95 145.124 32.8333 144.791 32.8C144.457 32.7333 143.891 32.7 143.091 32.7H137.391V47.25H146.591C147.391 47.25 147.957 47.2333 148.291 47.2C148.624 47.1333 148.841 47.0167 148.941 46.85C149.074 46.65 149.191 46.35 149.291 45.95L150.891 40.4Z" fill="#BFAEAA"/>
</svg>
