<svg width="90" height="18" viewBox="0 0 90 18" fill="none" xmlns="http://www.w3.org/2000/svg">
<path d="M9 0L11.5392 5.50505L17.5595 6.21885L13.1086 10.335L14.2901 16.2812L9 13.32L3.70993 16.2812L4.89144 10.335L0.440492 6.21885L6.46077 5.50505L9 0Z" fill="#EAC800"/>
<path d="M27 0L29.5392 5.50505L35.5595 6.21885L31.1086 10.335L32.2901 16.2812L27 13.32L21.7099 16.2812L22.8914 10.335L18.4405 6.21885L24.4608 5.50505L27 0Z" fill="#EAC800"/>
<path d="M45 0L47.5392 5.50505L53.5595 6.21885L49.1086 10.335L50.2901 16.2812L45 13.32L39.7099 16.2812L40.8914 10.335L36.4405 6.21885L42.4608 5.50505L45 0Z" fill="#EAC800"/>
<path d="M63 0L65.5392 5.50505L71.5595 6.21885L67.1086 10.335L68.2901 16.2812L63 13.32L57.7099 16.2812L58.8914 10.335L54.4405 6.21885L60.4608 5.50505L63 0Z" fill="#EAC800"/>
<path d="M81 1.19375L83.0852 5.71447L83.2024 5.96862L83.4804 6.00157L88.4242 6.58774L84.7691 9.96786L84.5636 10.1579L84.6182 10.4324L85.5884 15.3154L81.2442 12.8837L81 12.747L80.7558 12.8837L76.4116 15.3154L77.3818 10.4324L77.4364 10.1579L77.2309 9.96786L73.5758 6.58774L78.5196 6.00157L78.7976 5.96862L78.9148 5.71447L81 1.19375Z" fill="url(#paint0_linear_101_111)" stroke="#EAC800"/>
<defs>
<linearGradient id="paint0_linear_101_111" x1="73.5" y1="7" x2="88" y2="7" gradientUnits="userSpaceOnUse">
<stop offset="0.477927" stop-color="#EAC800"/>
<stop offset="0.536506" stop-color="#EAC800" stop-opacity="0"/>
</linearGradient>
</defs>
</svg>
